<svg xmlns:xlink="http://www.w3.org/1999/xlink" xmlns="http://www.w3.org/2000/svg" width="512" height="512" viewBox="0 0 512 512" style=""><rect data-fl-background="" x="0" y="0" width="512" height="512" fill="#000000" data-darkreader-inline-fill="" style="--darkreader-inline-fill:transparent;" fill-opacity="0"></rect><path text="ChitChat" fill="#1E2021" space="preserve" text-anchor="middle" offset="0.5" font-scale="contain" font-size="50" font-family="Coiny" transform="matrix(1.322542354464531, 0, 0, 1.322542354464531, 255.90081335949412, 381.51231473163205)" data-fl-textpath="" font-weight="400" font-style="normal" d="M-94.975-24.85L-94.975-24.85Q-94.975-25.9 -95.845-26.65Q-96.725-27.4 -97.925-27.4L-97.925-27.4Q-100.325-27.4 -101.875-24.68Q-103.425-21.95 -103.425-18.5L-103.425-18.5Q-103.425-15.85 -102.425-13.73Q-101.425-11.6 -99.525-10.35Q-97.625-9.1 -95.125-9.1L-95.125-9.1Q-93.275-9.1 -91.575-9.83Q-89.875-10.55 -88.825-11.43Q-87.775-12.3 -86.645-13.03Q-85.525-13.75 -84.675-13.75L-84.675-13.75Q-83.575-13.75 -82.775-12.88Q-81.975-12 -81.975-11.05L-81.975-11.05Q-81.975-10 -82.60499999999999-8.6Q-83.225-7.2 -84.575-5.63Q-85.925-4.05 -87.725-2.73Q-89.525-1.4 -92.195-0.53Q-94.875 0.35 -97.825 0.35L-97.825 0.35Q-101.725 0.35 -105.045-0.83Q-108.375-2 -110.825-4.17Q-113.275-6.35 -114.675-9.65Q-116.075-12.95 -116.075-17.05L-116.075-17.05Q-116.075-25.15 -111.225-29.85Q-106.375-34.55 -98.525-34.55L-98.525-34.55Q-94.525-34.55 -91.125-33.2Q-87.725-31.85 -85.725-29.45Q-83.725-27.05 -83.725-24.2L-83.725-24.2Q-83.725-20.9 -85.925-18.23Q-88.125-15.55 -91.625-15.55L-91.625-15.55Q-93.625-15.55 -95.225-16.65Q-96.825-17.75 -96.825-19.8L-96.825-19.8Q-96.825-20.75 -95.895-22.45Q-94.975-24.15 -94.975-24.85ZM-61.474999999999994-4.15L-61.52499999999999-13.4Q-61.52499999999999-16.25 -63.724999999999994-16.25L-63.724999999999994-16.25Q-64.125-16.25 -64.445-16.15Q-64.77499999999999-16.05 -65.04499999999999-15.9Q-65.32499999999999-15.75 -65.54499999999999-15.48Q-65.77499999999999-15.2 -65.945-14.88Q-66.125-14.55 -66.195-14.1Q-66.27499999999999-13.65 -66.27499999999999-13.1L-66.27499999999999-13.1L-66.27499999999999-7.6Q-66.27499999999999-3.5 -67.595-1.78Q-68.925-0.05 -71.625-0.05L-71.625-0.05Q-74.425-0.05 -75.725-1.63Q-77.02499999999999-3.2 -77.02499999999999-7.2L-77.02499999999999-7.2L-77.125-28.5Q-77.125-31.6 -75.625-33.05Q-74.125-34.5 -71.625-34.5L-71.625-34.5Q-68.975-34.5 -67.625-33.4Q-66.27499999999999-32.3 -66.27499999999999-28.95L-66.27499999999999-28.95L-66.27499999999999-21.7Q-62.574999999999996-23.95 -57.27499999999999-23.95L-57.27499999999999-23.95Q-54.87499999999999-23.95 -53.425-22.73Q-51.974999999999994-21.5 -51.27499999999999-18.85Q-50.574999999999996-16.2 -50.574999999999996-11.9L-50.574999999999996-11.9Q-50.574999999999996-9.7 -50.644999999999996-8.1Q-50.724999999999994-6.5 -50.87499999999999-5.18Q-51.02499999999999-3.85 -51.324999999999996-3Q-51.62499999999999-2.15 -52.02499999999999-1.55Q-52.425-0.95 -53.044999999999995-0.63Q-53.675-0.3 -54.425-0.15Q-55.175 0 -56.224999999999994 0L-56.224999999999994 0Q-59.02499999999999 0 -60.24499999999999-1.03Q-61.474999999999994-2.05 -61.474999999999994-4.15L-61.474999999999994-4.15ZM-46.12499999999999-30.8L-46.12499999999999-30.8Q-46.12499999999999-32.45 -44.69499999999999-33.52Q-43.27499999999999-34.6 -40.67499999999999-34.6L-40.67499999999999-34.6Q-35.224999999999994-34.6 -35.224999999999994-30.8L-35.224999999999994-30.8Q-35.224999999999994-28.7 -36.59499999999999-27.85Q-37.974999999999994-27 -40.67499999999999-27L-40.67499999999999-27Q-43.02499999999999-27 -44.57499999999999-27.9Q-46.12499999999999-28.8 -46.12499999999999-30.8ZM-35.27499999999999-18.35L-35.27499999999999-5.35Q-35.27499999999999-2.35 -36.52499999999999-1.18Q-37.77499999999999 0 -40.92499999999999 0L-40.92499999999999 0Q-43.87499999999999 0 -44.94499999999999-1.38Q-46.02499999999999-2.75 -46.02499999999999-5.9L-46.02499999999999-5.9L-46.02499999999999-18.2Q-46.02499999999999-20.75 -44.64499999999999-22.3Q-43.27499999999999-23.85 -40.974999999999994-23.85L-40.974999999999994-23.85Q-38.27499999999999-23.85 -36.77499999999999-22.68Q-35.27499999999999-21.5 -35.27499999999999-18.35L-35.27499999999999-18.35ZM-28.22499999999999-10.7L-28.22499999999999-10.7L-28.22499999999999-16.6Q-29.47499999999999-16.65 -30.22499999999999-17.03Q-30.97499999999999-17.4 -31.29499999999999-18Q-31.624999999999993-18.6 -31.624999999999993-19.5L-31.624999999999993-19.5Q-31.624999999999993-22.35 -28.17499999999999-22.6L-28.17499999999999-22.6L-28.17499999999999-27.25Q-28.17499999999999-29.15 -25.42499999999999-30.68Q-22.67499999999999-32.2 -19.97499999999999-32.2L-19.97499999999999-32.2Q-18.324999999999992-32.2 -17.824999999999992-31.25Q-17.324999999999992-30.3 -17.324999999999992-28.4L-17.324999999999992-28.4L-17.27499999999999-22.65L-15.92499999999999-22.65Q-13.17499999999999-22.65 -12.144999999999992-21.93Q-11.124999999999993-21.2 -11.124999999999993-19.3L-11.124999999999993-19.3Q-11.124999999999993-18.5 -11.42499999999999-17.95Q-11.72499999999999-17.4 -12.394999999999992-17.1Q-13.074999999999992-16.8 -14.024999999999991-16.68Q-14.97499999999999-16.55 -16.374999999999993-16.55L-16.374999999999993-16.55L-17.27499999999999-16.55L-17.27499999999999-11.05Q-17.27499999999999-10.25 -17.194999999999993-9.73Q-17.124999999999993-9.2 -16.97499999999999-8.9Q-16.824999999999992-8.6 -16.54499999999999-8.5Q-16.27499999999999-8.4 -15.874999999999993-8.4L-15.874999999999993-8.4Q-15.274999999999991-8.4 -14.874999999999993-8.83Q-14.47499999999999-9.25 -14.24499999999999-9.78Q-14.024999999999991-10.3 -13.644999999999992-10.73Q-13.274999999999991-11.15 -12.774999999999991-11.15L-12.774999999999991-11.15Q-11.624999999999993-11.15 -10.99499999999999-10.6Q-10.374999999999993-10.05 -10.374999999999993-9.25L-10.374999999999993-9.25Q-10.374999999999993-7.9 -10.894999999999992-6.35Q-11.42499999999999-4.8 -12.42499999999999-3.35Q-13.42499999999999-1.9 -15.204999999999991-0.95Q-16.97499999999999 0 -19.17499999999999 0L-19.17499999999999 0Q-24.124999999999993 0 -26.17499999999999-2.5Q-28.22499999999999-5 -28.22499999999999-10.7ZM 15.675000000000008-24.85L 15.675000000000008-24.85Q 15.675000000000008-25.9  14.80500000000001-26.65Q 13.925000000000008-27.4  12.725000000000009-27.4L 12.725000000000009-27.4Q 10.32500000000001-27.4  8.77500000000001-24.68Q 7.2250000000000085-21.95  7.2250000000000085-18.5L 7.2250000000000085-18.5Q 7.2250000000000085-15.85  8.225000000000009-13.73Q 9.225000000000009-11.6  11.12500000000001-10.35Q 13.02500000000001-9.1  15.52500000000001-9.1L 15.52500000000001-9.1Q 17.37500000000001-9.1  19.07500000000001-9.83Q 20.77500000000001-10.55  21.82500000000001-11.43Q 22.87500000000001-12.3  24.00500000000001-13.03Q 25.12500000000001-13.75  25.975000000000012-13.75L 25.975000000000012-13.75Q 27.075000000000006-13.75  27.87500000000001-12.88Q 28.675000000000008-12  28.675000000000008-11.05L 28.675000000000008-11.05Q 28.675000000000008-10  28.045000000000012-8.6Q 27.425000000000008-7.2  26.075000000000006-5.63Q 24.725000000000012-4.05  22.925000000000008-2.73Q 21.12500000000001-1.4  18.45500000000001-0.53Q 15.77500000000001 0.35  12.82500000000001 0.35L 12.82500000000001 0.35Q 8.925000000000008 0.35  5.605000000000009-0.83Q 2.2750000000000092-2 -0.17499999999999094-4.17Q-2.624999999999991-6.35 -4.024999999999991-9.65Q-5.424999999999991-12.95 -5.424999999999991-17.05L-5.424999999999991-17.05Q-5.424999999999991-25.15 -0.5749999999999904-29.85Q 4.275000000000009-34.55  12.12500000000001-34.55L 12.12500000000001-34.55Q 16.12500000000001-34.55  19.52500000000001-33.2Q 22.925000000000008-31.85  24.925000000000008-29.45Q 26.925000000000008-27.05  26.925000000000008-24.2L 26.925000000000008-24.2Q 26.925000000000008-20.9  24.725000000000012-18.23Q 22.52500000000001-15.55  19.02500000000001-15.55L 19.02500000000001-15.55Q 17.02500000000001-15.55  15.425000000000008-16.65Q 13.82500000000001-17.75  13.82500000000001-19.8L 13.82500000000001-19.8Q 13.82500000000001-20.75  14.75500000000001-22.45Q 15.675000000000008-24.15  15.675000000000008-24.85ZM 49.17500000000002-4.15L 49.125000000000014-13.4Q 49.125000000000014-16.25  46.92500000000002-16.25L 46.92500000000002-16.25Q 46.52500000000002-16.25  46.20500000000002-16.15Q 45.875000000000014-16.05  45.60500000000002-15.9Q 45.32500000000002-15.75  45.10500000000002-15.48Q 44.875000000000014-15.2  44.70500000000002-14.88Q 44.52500000000002-14.55  44.45500000000002-14.1Q 44.375000000000014-13.65  44.375000000000014-13.1L 44.375000000000014-13.1L 44.375000000000014-7.6Q 44.375000000000014-3.5  43.05500000000002-1.78Q 41.72500000000002-0.05  39.02500000000002-0.05L 39.02500000000002-0.05Q 36.225000000000016-0.05  34.92500000000002-1.63Q 33.62500000000002-3.2  33.62500000000002-7.2L 33.62500000000002-7.2L 33.52500000000002-28.5Q 33.52500000000002-31.6  35.02500000000002-33.05Q 36.52500000000002-34.5  39.02500000000002-34.5L 39.02500000000002-34.5Q 41.67500000000002-34.5  43.02500000000002-33.4Q 44.375000000000014-32.3  44.375000000000014-28.95L 44.375000000000014-28.95L 44.375000000000014-21.7Q 48.07500000000002-23.95  53.375000000000014-23.95L 53.375000000000014-23.95Q 55.77500000000002-23.95  57.22500000000002-22.73Q 58.67500000000002-21.5  59.375000000000014-18.85Q 60.07500000000002-16.2  60.07500000000002-11.9L 60.07500000000002-11.9Q 60.07500000000002-9.7  60.00500000000002-8.1Q 59.92500000000002-6.5  59.77500000000002-5.18Q 59.625000000000014-3.85  59.32500000000002-3Q 59.02500000000002-2.15  58.625000000000014-1.55Q 58.22500000000002-0.95  57.60500000000002-0.63Q 56.97500000000002-0.3  56.22500000000002-0.15Q 55.47500000000002 0  54.42500000000002 0L 54.42500000000002 0Q 51.625000000000014 0  50.405000000000015-1.03Q 49.17500000000002-2.05  49.17500000000002-4.15L 49.17500000000002-4.15ZM 73.62500000000003 0.3L 73.62500000000003 0.3Q 69.67500000000003 0.3  67.07500000000002-2.93Q 64.47500000000002-6.15  64.47500000000002-11.75L 64.47500000000002-11.75Q 64.47500000000002-17.45  67.04500000000002-20.83Q 69.62500000000003-24.2  73.62500000000003-24.2L 73.62500000000003-24.2Q 77.67500000000003-24.2  81.12500000000003-21.35L 81.12500000000003-21.35Q 82.47500000000002-23.85  85.47500000000002-23.85L 85.47500000000002-23.85Q 88.17500000000003-23.85  89.67500000000003-22.68Q 91.17500000000003-21.5  91.17500000000003-18.35L 91.17500000000003-18.35L 91.17500000000003-5.35Q 91.17500000000003-2.35  89.92500000000003-1.18Q 88.67500000000003 0  85.52500000000002 0L 85.52500000000002 0Q 82.22500000000002 0  81.17500000000003-1.85L 81.17500000000003-1.85Q 77.97500000000002 0.3  73.62500000000003 0.3ZM 80.42500000000003-7.2L 80.42500000000003-16.55Q 79.57500000000002-18  78.22500000000002-18L 78.22500000000002-18Q 76.92500000000003-18  76.12500000000003-16.1Q 75.32500000000002-14.2  75.32500000000002-11.75L 75.32500000000002-11.75Q 75.32500000000002-9.45  76.07500000000002-7.65Q 76.82500000000002-5.85  78.17500000000003-5.85L 78.17500000000003-5.85Q 79.57500000000002-5.85  80.42500000000003-7.2L 80.42500000000003-7.2ZM 98.37500000000001-10.7L 98.37500000000001-10.7L 98.37500000000001-16.6Q 97.12500000000001-16.65  96.37500000000001-17.03Q 95.62500000000001-17.4  95.30500000000002-18Q 94.97500000000002-18.6  94.97500000000002-19.5L 94.97500000000002-19.5Q 94.97500000000002-22.35  98.42500000000001-22.6L 98.42500000000001-22.6L 98.42500000000001-27.25Q 98.42500000000001-29.15  101.17500000000001-30.68Q 103.92500000000001-32.2  106.62500000000001-32.2L 106.62500000000001-32.2Q 108.27500000000002-32.2  108.77500000000002-31.25Q 109.27500000000002-30.3  109.27500000000002-28.4L 109.27500000000002-28.4L 109.32500000000002-22.65L 110.67500000000001-22.65Q 113.42500000000001-22.65  114.45500000000001-21.93Q 115.47500000000002-21.2  115.47500000000002-19.3L 115.47500000000002-19.3Q 115.47500000000002-18.5  115.17500000000001-17.95Q 114.87500000000001-17.4  114.20500000000001-17.1Q 113.52500000000002-16.8  112.57500000000002-16.68Q 111.62500000000001-16.55  110.22500000000002-16.55L 110.22500000000002-16.55L 109.32500000000002-16.55L 109.32500000000002-11.05Q 109.32500000000002-10.25  109.40500000000002-9.73Q 109.47500000000002-9.2  109.62500000000001-8.9Q 109.77500000000002-8.6  110.05500000000002-8.5Q 110.32500000000002-8.4  110.72500000000002-8.4L 110.72500000000002-8.4Q 111.32500000000002-8.4  111.72500000000002-8.83Q 112.12500000000001-9.25  112.35500000000002-9.78Q 112.57500000000002-10.3  112.95500000000001-10.73Q 113.32500000000002-11.15  113.82500000000002-11.15L 113.82500000000002-11.15Q 114.97500000000002-11.15  115.60500000000002-10.6Q 116.22500000000002-10.05  116.22500000000002-9.25L 116.22500000000002-9.25Q 116.22500000000002-7.9  115.70500000000001-6.35Q 115.17500000000001-4.8  114.17500000000001-3.35Q 113.17500000000001-1.9  111.39500000000001-0.95Q 109.62500000000001 0  107.42500000000001 0L 107.42500000000001 0Q 102.47500000000002 0  100.42500000000001-2.5Q 98.37500000000001-5  98.37500000000001-10.7Z" data-darkreader-inline-fill="" style="--darkreader-inline-fill:#1e2021;"></path><g transform="matrix(0.364726217246673, 0, 0, 0.364726217246673, 162.88268684237528, 128.56735147944437)"><path d="m444.394 3.996h-285.072c-37.183 0-67.606 30.423-67.606 67.606v23.004h257.871c37.183 0 67.606 30.423 67.606 67.606v168.547h27.201c37.183 0 67.606-30.423 67.606-67.606v-191.551c0-37.184-30.423-67.606-67.606-67.606z" fill="#243380" transform="matrix(1, 0, 0, 1, 0, 0)" data-darkreader-inline-fill="" style="--darkreader-inline-fill:#243380;"></path><path d="m396.461 91.515h-285.072c-6.836 0-13.441 1.036-19.673 2.946v.145h257.871c37.183 0 67.606 30.423 67.606 67.606v168.547h27.2c6.836 0 13.441-1.036 19.673-2.946v-168.692c.001-37.183-30.422-67.606-67.605-67.606z" fill="#253992" transform="matrix(1, 0, 0, 1, 0, 0)" data-darkreader-inline-fill="" style="--darkreader-inline-fill:#253992;"></path><path d="m352.678 91.515h-285.072c-37.183 0-67.606 30.423-67.606 67.606v191.55c0 37.183 30.423 67.606 67.606 67.606h171.096c7.335 0 12.811 6.826 11.133 13.966-4.537 19.317-11.48 39.745-21.744 60.686-4.609 9.405 5.876 18.966 14.782 13.454 25.751-15.937 62.389-42.61 93.244-80.317 4.056-4.957 10.156-7.79 16.561-7.79 37.183 0 67.606-30.423 67.606-67.606v-191.55c0-37.182-30.423-67.605-67.606-67.605z" fill="#015292" transform="matrix(1, 0, 0, 1, 0, 0)" data-darkreader-inline-fill="" style="--darkreader-inline-fill:#015292;"></path><path d="m293.618 432.243c1.677-7.141-3.798-13.966-11.133-13.966h-43.783c7.335 0 12.81 6.825 11.133 13.966-4.537 19.317-11.48 39.745-21.744 60.686-4.609 9.405 5.876 18.966 14.782 13.454 9.88-6.115 21.365-13.816 33.509-23.108 7.832-17.563 13.399-34.696 17.236-51.032z" fill="#32AEFE" transform="matrix(1, 0, 0, 1, 0, 0)" data-darkreader-inline-fill="" style="--darkreader-inline-fill:#32aefe;"></path><path d="m43.783 350.671v-191.55c0-37.183 30.423-67.606 67.606-67.606h-43.783c-37.183 0-67.606 30.423-67.606 67.606v191.55c0 37.183 30.423 67.606 67.606 67.606h43.783c-37.184 0-67.606-30.422-67.606-67.606z" fill="#016FB7" transform="matrix(1, 0, 0, 1, 0, 0)" data-darkreader-inline-fill="" style="--darkreader-inline-fill:#016fb7;"></path><path fill="#BCDAF5" transform="matrix(1, 0, 0, 1, 0, 0)" data-type="circle" data-cx="93.714" data-cy="260.397" data-r="22.434" d="M93.714,260.397m-22.434,0a22.434,22.434 0 1, 0 44.868,0a22.434,22.434 0 1, 0 -44.868,0" data-darkreader-inline-fill="" style="--darkreader-inline-fill:#bcdaf5;"></path><path fill="#BCDAF5" transform="matrix(1, 0, 0, 1, 0, 0)" data-type="circle" data-cx="166.174" data-cy="260.397" data-r="22.434" d="M166.174,260.397m-22.434,0a22.434,22.434 0 1, 0 44.868,0a22.434,22.434 0 1, 0 -44.868,0" data-darkreader-inline-fill="" style="--darkreader-inline-fill:#bcdaf5;"></path><path fill="#BCDAF5" transform="matrix(1, 0, 0, 1, 0, 0)" data-type="circle" data-cx="238.633" data-cy="260.397" data-r="22.434" d="M238.633,260.397m-22.434,0a22.434,22.434 0 1, 0 44.868,0a22.434,22.434 0 1, 0 -44.868,0" data-darkreader-inline-fill="" style="--darkreader-inline-fill:#bcdaf5;"></path><path fill="#BCDAF5" transform="matrix(1, 0, 0, 1, 0, 0)" data-type="circle" data-cx="311.093" data-cy="260.397" data-r="22.434" d="M311.093,260.397m-22.434,0a22.434,22.434 0 1, 0 44.868,0a22.434,22.434 0 1, 0 -44.868,0" data-darkreader-inline-fill="" style="--darkreader-inline-fill:#bcdaf5;"></path><path d="m93.714 260.397c0-8.302 4.514-15.546 11.217-19.425-3.301-1.91-7.129-3.009-11.217-3.009-12.39 0-22.434 10.044-22.434 22.434s10.044 22.434 22.434 22.434c4.088 0 7.917-1.099 11.217-3.009-6.704-3.879-11.217-11.123-11.217-19.425z" fill="#97D1FB" transform="matrix(1, 0, 0, 1, 0, 0)" data-darkreader-inline-fill="" style="--darkreader-inline-fill:#97d1fb;"></path><path d="m166.174 260.397c0-8.302 4.514-15.546 11.217-19.425-3.301-1.91-7.129-3.009-11.217-3.009-12.39 0-22.434 10.044-22.434 22.434s10.044 22.434 22.434 22.434c4.088 0 7.916-1.099 11.217-3.009-6.704-3.879-11.217-11.123-11.217-19.425z" fill="#97D1FB" transform="matrix(1, 0, 0, 1, 0, 0)" data-darkreader-inline-fill="" style="--darkreader-inline-fill:#97d1fb;"></path><path d="m238.633 260.397c0-8.302 4.514-15.546 11.217-19.425-3.301-1.91-7.13-3.009-11.217-3.009-12.39 0-22.434 10.044-22.434 22.434s10.044 22.434 22.434 22.434c4.088 0 7.917-1.099 11.217-3.009-6.703-3.879-11.217-11.123-11.217-19.425z" fill="#97D1FB" transform="matrix(1, 0, 0, 1, 0, 0)" data-darkreader-inline-fill="" style="--darkreader-inline-fill:#97d1fb;"></path><path d="m311.093 260.397c0-8.302 4.513-15.546 11.217-19.425-3.301-1.91-7.13-3.009-11.217-3.009-12.39 0-22.434 10.044-22.434 22.434s10.044 22.434 22.434 22.434c4.088 0 7.917-1.099 11.217-3.009-6.704-3.879-11.217-11.123-11.217-19.425z" fill="#97D1FB" transform="matrix(1, 0, 0, 1, 0, 0)" data-darkreader-inline-fill="" style="--darkreader-inline-fill:#97d1fb;"></path></g></svg>